<svg xmlns="http://www.w3.org/2000/svg" xmlns:xlink="http://www.w3.org/1999/xlink" fill="none" version="1.1" width="24" height="24" viewBox="0 0 24 24"><defs><clipPath id="master_svg0_13_0159"><rect x="0" y="0" width="24" height="24" rx="0"/></clipPath></defs><g clip-path="url(#master_svg0_13_0159)"><g><path d="M12.635916671875,19.993129984375L17.933601671875,23.188287984375C18.877179671875,23.757340984375,20.044338671875,22.912919984375,19.792970671875,21.838603984375L18.391496671875,15.813971984375C18.287587671875,15.363658984375,18.440902671875,14.892779984375,18.790023671875,14.589971984375L23.468759671875,10.539024384375C24.303077671875,9.816498784375,23.858444671875,8.447866484375,22.760127671875,8.352498984375L16.592128671875,7.823867784375C16.131679671875,7.784895884375,15.730706671875,7.494074784375,15.550655671875,7.068498584375L13.143075671875,1.387445864375C12.712339671875,0.373130084375,11.275498671875,0.373130084375,10.847287671875,1.387445864375L8.439708671875,7.068498584375C8.259658771875,7.494073884375,7.858684571875,7.784895884375,7.398234871875,7.823867784375L1.224550571875,8.349972684375C0.125603288875,8.445341084375,-0.318396718125,9.813972484375,0.515919061875,10.535866784375L5.194655371875,14.586812984375C5.543919071875,14.889970984375,5.696761171875,15.361128984375,5.592550271875,15.810812984375L4.191076771875,21.836074984375C3.940340071875,22.909759984375,5.107497671875,23.754811984375,6.051076871875,23.185126984375L11.348761671875,19.993127984375C11.744952671875,19.755643984375,12.239728671875,19.755643984375,12.635916671875,19.993129984375Z" fill="#DDDDDD" fill-opacity="1" style="mix-blend-mode:passthrough"/></g></g></svg>