<svg xmlns="http://www.w3.org/2000/svg" xmlns:xlink="http://www.w3.org/1999/xlink" fill="none" version="1.1" width="23.920867919921875" height="24" viewBox="0 0 23.920867919921875 24"><g><path d="M13.245238,0.4133943L22.477432,7.0397892C23.383419,7.6900425,23.920721,8.7368803,23.920868,9.8520651L23.920868,20.537766C23.920868,22.449863,22.370733,23.999996,20.458637,23.999996L15.737414,23.999996L15.737414,18.964027C15.737414,16.878189,14.046271,15.187048,11.960435,15.187048C9.8745985,15.187048,8.1834564,16.878189,8.1834564,18.964027L8.1834564,24L3.4622312,24C1.5501353,24,0,22.449863,0,20.537769L0,9.8523788C0.000048401987,8.7370853,0.53736264,7.6901083,1.4434357,7.0397892L10.675632,0.41339409C11.443492,-0.13779795,12.477377,-0.13779795,13.245238,0.4133943Z" fill="#CCC" fill-opacity="1" style="mix-blend-mode:passthrough"/></g></svg>