<svg xmlns="http://www.w3.org/2000/svg" xmlns:xlink="http://www.w3.org/1999/xlink" fill="none" version="1.1" width="24" height="23.996570587158203" viewBox="0 0 24 23.996570587158203"><g><path d="M11.999999,11.996572C8.6889448,11.996572,6.0017128,9.312767,6.0017128,5.9982858C6.0017128,2.6838052,8.6889448,0,11.999999,0C15.31105,0,17.998283,2.687232,17.998283,5.9982858C17.998283,9.3093395,15.31105,11.996572,11.999999,11.996572ZM23.352184,17.538986C23.544127,17.953724,23.677805,18.553553,23.794344,19.348757C23.85261,19.75321,23.904024,20.181658,23.945158,20.613539C23.95887,20.764353,23.972576,20.901457,23.982862,21.028276C23.989714,21.103682,23.993141,21.158522,23.996572,21.192799L24,21.271635C24,22.776348,22.779778,23.996571,21.275064,23.996571L2.7249353,23.996571C1.2202228,23.996571,0,22.772919,0,21.271635L0.0034278007,21.192799C0.0068556014,21.161949,0.01028288,21.107107,0.017137958,21.028276C0.027420837,20.901453,0.041130994,20.764349,0.054841675,20.613539C0.095972665,20.185089,0.14738655,19.753214,0.20565549,19.348757C0.32219341,18.553553,0.45586979,17.953724,0.64781463,17.538986C1.4875746,15.718937,7.6572394,13.086544,11.999999,13.086544C16.342758,13.086544,22.512424,15.718934,23.352184,17.538986Z" fill="#F63D10" fill-opacity="1" style="mix-blend-mode:passthrough"/></g></svg>